<?xml version="1.0" standalone="no"?>
<!DOCTYPE svg PUBLIC "-//W3C//DTD SVG 20010904//EN"
 "http://www.w3.org/TR/2001/REC-SVG-20010904/DTD/svg10.dtd">
<svg version="1.0" xmlns="http://www.w3.org/2000/svg"
 width="540.000000pt" height="540.000000pt" viewBox="0 0 540.000000 540.000000"
 preserveAspectRatio="xMidYMid meet">
<metadata>
Created by potrace 1.14, written by Peter Selinger 2001-2017
</metadata>
<g transform="translate(0.000000,540.000000) scale(0.100000,-0.100000)"
fill="#000000" stroke="none">
<path d="M2555 5203 c-370 -30 -652 -105 -950 -252 -330 -163 -599 -374 -832
-655 -219 -263 -400 -617 -488 -954 -199 -765 -26 -1574 471 -2199 320 -402
809 -718 1310 -847 237 -61 392 -80 644 -80 663 1 1297 267 1765 739 340 343
584 804 674 1275 37 189 44 272 44 485 -1 401 -77 732 -253 1090 -365 744
-1051 1247 -1875 1374 -162 25 -376 35 -510 24z m259 -1008 c279 -17 532 -125
686 -292 121 -132 202 -317 212 -483 l3 -55 -130 -11 c-71 -7 -150 -12 -175
-13 l-45 -1 -22 91 c-28 119 -64 189 -137 267 -66 71 -152 120 -254 146 -107
28 -261 39 -390 27 -204 -19 -307 -56 -401 -146 -102 -97 -140 -199 -121 -323
13 -78 29 -110 83 -169 81 -87 202 -132 669 -247 330 -81 473 -127 588 -187
206 -107 345 -267 395 -455 26 -93 30 -246 11 -340 -72 -359 -353 -604 -776
-680 -147 -26 -431 -24 -585 4 -255 48 -430 129 -573 266 -157 150 -260 366
-279 583 -7 85 -23 77 177 92 182 15 168 17 175 -26 12 -79 48 -191 82 -255
87 -166 287 -291 537 -334 141 -25 382 -15 501 20 176 53 294 140 355 263 32
64 34 74 35 173 0 96 -2 110 -29 164 -80 162 -212 227 -727 355 -503 125 -656
189 -809 341 -134 133 -191 271 -191 459 0 196 73 374 204 503 97 94 186 148
332 201 127 45 352 79 470 71 22 -2 80 -6 129 -9z"/>
</g>
</svg>
